<svg width="158" height="36" viewBox="0 0 158 36" fill="none" xmlns="http://www.w3.org/2000/svg">
<g clip-path="url(#clip0_9_442)">
<path fill-rule="evenodd" clip-rule="evenodd" d="M13.4659 25.2C12.2754 25.2 11.1337 24.7259 10.292 23.882C9.45018 23.0381 8.97727 21.8935 8.97727 20.7V0H0V20.7C0 28.1556 6.02914 34.2 13.4659 34.2H23.3409V25.2H13.4659ZM40.3977 9C39.3367 9 38.2861 9.20951 37.3058 9.61658C36.3256 10.0236 35.4349 10.6203 34.6846 11.3724C33.9344 12.1246 33.3392 13.0175 32.9332 14.0003C32.5272 14.983 32.3182 16.0363 32.3182 17.1C32.3182 18.1637 32.5272 19.217 32.9332 20.1997C33.3392 21.1825 33.9344 22.0754 34.6846 22.8276C35.4349 23.5797 36.3256 24.1764 37.3058 24.5834C38.2861 24.9905 39.3367 25.2 40.3977 25.2C42.5406 25.2 44.5956 24.3466 46.1108 22.8276C47.626 21.3085 48.4773 19.2483 48.4773 17.1C48.4773 14.9517 47.626 12.8915 46.1108 11.3724C44.5956 9.85339 42.5406 9 40.3977 9ZM23.3409 17.1C23.3409 7.6563 30.9779 0 40.3977 0C49.8176 0 57.4545 7.6563 57.4545 17.1C57.4545 26.5437 49.8176 34.2 40.3977 34.2C30.9779 34.2 23.3409 26.5437 23.3409 17.1ZM137.352 9C135.209 9 133.154 9.85339 131.639 11.3724C130.124 12.8915 129.273 14.9517 129.273 17.1C129.273 19.2483 130.124 21.3085 131.639 22.8276C133.154 24.3466 135.209 25.2 137.352 25.2C139.495 25.2 141.55 24.3466 143.065 22.8276C144.581 21.3085 145.432 19.2483 145.432 17.1C145.432 14.9517 144.581 12.8915 143.065 11.3724C141.55 9.85339 139.495 9 137.352 9ZM120.295 17.1C120.295 7.6563 127.932 0 137.352 0C146.772 0 154.409 7.6563 154.409 17.1C154.409 26.5437 146.772 34.2 137.352 34.2C127.932 34.2 120.295 26.5437 120.295 17.1ZM76.3068 0C66.887 0 59.25 7.6563 59.25 17.1C59.25 26.5437 66.887 34.2 76.3068 34.2H101.443C103.211 34.2 104.916 33.93 106.519 33.4296L111.318 36L116.496 26.2764C117.812 23.8011 118.5 21.0395 118.5 18.2349V17.1C118.5 7.6563 110.863 0 101.443 0H76.3068ZM109.523 17.1C109.523 14.9517 108.671 12.8915 107.156 11.3724C105.641 9.85339 103.586 9 101.443 9H76.3068C75.2458 9 74.1952 9.20951 73.2149 9.61658C72.2347 10.0236 71.344 10.6203 70.5937 11.3724C69.8435 12.1246 69.2483 13.0175 68.8423 14.0003C68.4363 14.983 68.2273 16.0363 68.2273 17.1C68.2273 18.1637 68.4363 19.217 68.8423 20.1997C69.2483 21.1825 69.8435 22.0754 70.5937 22.8276C71.344 23.5797 72.2347 24.1764 73.2149 24.5834C74.1952 24.9905 75.2458 25.2 76.3068 25.2H101.443C103.575 25.2001 105.621 24.3553 107.134 22.8499C108.648 21.3444 109.506 19.3003 109.523 17.163V17.1Z" fill="#6347F9"/>
<path d="M158 2.25C158 2.84674 157.763 3.41903 157.343 3.84099C156.922 4.26295 156.351 4.5 155.756 4.5C155.16 4.5 154.589 4.26295 154.169 3.84099C153.748 3.41903 153.511 2.84674 153.511 2.25C153.511 1.65326 153.748 1.08097 154.169 0.65901C154.589 0.237053 155.16 0 155.756 0C156.351 0 156.922 0.237053 157.343 0.65901C157.763 1.08097 158 1.65326 158 2.25Z" fill="#6347F9"/>
</g>
<defs>
<clipPath id="clip0_9_442">
<rect width="158" height="36" fill="white"/>
</clipPath>
</defs>
</svg>
